<?xml version="1.0" encoding="utf-8"?>
<!-- Generator: Adobe Illustrator 17.0.2, SVG Export Plug-In . SVG Version: 6.00 Build 0)  -->
<!DOCTYPE svg PUBLIC "-//W3C//DTD SVG 1.1//EN" "http://www.w3.org/Graphics/SVG/1.1/DTD/svg11.dtd">
<svg version="1.1" id="Layer_1" xmlns="http://www.w3.org/2000/svg" xmlns:xlink="http://www.w3.org/1999/xlink" x="0px" y="0px"
	 width="86px" height="100px" viewBox="0 0 86 100" enable-background="new 0 0 86 100" xml:space="preserve">
<g>
	<path id="Lissajous_4-3-0_3_" fill="none" stroke="#EBEBEB" stroke-linecap="round" stroke-linejoin="round" d="M43,42.79
		c4.82,6.427,9.668,12.891,14.027,18.041c2.831,3.346,5.632,6.344,8.013,8.21c1.341,1.051,2.84,1.971,4.035,1.971
		c1.507,0,2.148-1.467,2.148-3.781c0-3.443-1.418-8.928-3.898-15.08c-1.993-4.945-4.675-10.324-7.868-15.442
		c-2.377-3.809-5.008-7.427-7.813-10.597c-2.199-2.485-5.176-5.453-8.644-7.765c-4.185-2.79-8.206-4.038-11.879-3.737
		c-3.236,0.265-6.08,1.721-8.458,4.108c-1.976,1.984-3.329,4.308-4.211,6.149c-2.434,5.081-3.675,11.478-3.675,17.922
		s1.241,12.841,3.675,17.922c0.882,1.841,2.235,4.165,4.211,6.149c2.378,2.387,5.222,3.843,8.458,4.108
		c3.673,0.3,7.694-0.947,11.879-3.737c3.468-2.312,6.444-5.28,8.644-7.765c2.805-3.17,5.436-6.787,7.813-10.597
		c3.193-5.118,5.874-10.497,7.868-15.442c2.48-6.151,3.898-11.637,3.898-15.08c0-2.315-0.641-3.781-2.148-3.781
		c-1.195,0-2.694,0.921-4.035,1.971c-2.381,1.866-5.181,4.864-8.013,8.21C52.668,29.898,47.82,36.362,43,42.79
		s-9.668,12.891-14.027,18.041c-2.831,3.346-5.632,6.344-8.013,8.21c-1.341,1.051-2.84,1.971-4.035,1.971
		c-1.507,0-2.148-1.467-2.148-3.781c0-3.443,1.418-8.928,3.898-15.08c1.993-4.945,4.675-10.324,7.868-15.442
		c2.377-3.809,5.008-7.427,7.813-10.597c2.199-2.485,5.176-5.453,8.644-7.765c4.185-2.79,8.206-4.038,11.879-3.737
		c3.236,0.265,6.08,1.721,8.458,4.108c1.976,1.984,3.329,4.308,4.211,6.149c2.434,5.081,3.675,11.478,3.675,17.922
		s-1.241,12.841-3.675,17.922c-0.882,1.841-2.235,4.165-4.211,6.149c-2.378,2.387-5.222,3.843-8.458,4.108
		c-3.673,0.3-7.694-0.947-11.879-3.737c-3.468-2.312-6.444-5.28-8.644-7.765c-2.805-3.17-5.436-6.787-7.813-10.597
		c-3.193-5.118-5.874-10.497-7.868-15.442c-2.48-6.151-3.898-11.637-3.898-15.08c0-2.315,0.641-3.781,2.148-3.781
		c1.195,0,2.694,0.921,4.035,1.971c2.381,1.866,5.181,4.864,8.013,8.21C33.332,29.898,38.18,36.362,43,42.79z"/>
	
		<path id="Lissajous_4-3-0_2_" fill="none" stroke="#4E8A97" stroke-linecap="round" stroke-linejoin="round" stroke-miterlimit="10" d="
		M69.074,56.9c-0.442,1.333-0.951,2.609-1.527,3.811c-0.882,1.841-2.235,4.165-4.211,6.149c-2.378,2.387-5.222,3.843-8.458,4.108
		c-3.673,0.3-7.694-0.947-11.879-3.737c-3.468-2.312-6.444-5.28-8.644-7.765c-2.805-3.17-5.436-6.787-7.813-10.597
		c-3.193-5.118-5.874-10.497-7.868-15.442c-2.48-6.151-3.898-11.637-3.898-15.08c0-2.315,0.641-3.781,2.148-3.781
		c1.195,0,2.694,0.921,4.035,1.971c2.381,1.866,5.181,4.864,8.013,8.21C33.332,29.898,38.18,36.362,43,42.79
		s9.668,12.891,14.027,18.041c2.831,3.346,5.632,6.344,8.013,8.21c1.341,1.051,2.84,1.971,4.035,1.971
		c1.507,0,2.148-1.467,2.148-3.781C71.223,64.651,70.518,61.196,69.074,56.9"/>
	<rect x="2.07" y="1.859" fill="none" stroke="#4E8A97" stroke-width="3" stroke-miterlimit="10" width="81.861" height="81.861"/>
	
		<rect x="2.07" y="83.809" fill="#4E8A97" stroke="#4E8A97" stroke-width="3" stroke-miterlimit="10" width="81.861" height="14.332"/>
	<g>
		<path fill="#FFFFFF" d="M5.927,95.573v-9.196h1.209v8.04h3.153v1.156H5.927z"/>
		<path fill="#FFFFFF" d="M14.282,95.573v-9.196h1.209v9.196H14.282z"/>
		<path fill="#FFFFFF" d="M20.601,93.274c0.303,0.774,0.999,1.274,1.826,1.274c0.999,0,1.551-0.592,1.551-1.38
			c0-1.971-4.099-1.616-4.099-4.506c0-1.354,0.985-2.418,2.509-2.418c1.393,0,2.221,0.763,2.654,1.853l-1.091,0.631
			c-0.236-0.735-0.709-1.313-1.576-1.313c-0.814,0-1.274,0.525-1.274,1.208c0,2.023,4.086,1.524,4.086,4.52
			c0,1.498-1.064,2.562-2.76,2.562c-1.366,0-2.417-0.723-2.877-1.748L20.601,93.274z"/>
		<path fill="#FFFFFF" d="M29.73,93.274c0.303,0.774,0.999,1.274,1.826,1.274c0.999,0,1.551-0.592,1.551-1.38
			c0-1.971-4.099-1.616-4.099-4.506c0-1.354,0.985-2.418,2.509-2.418c1.393,0,2.221,0.763,2.654,1.853l-1.091,0.631
			c-0.236-0.735-0.709-1.313-1.576-1.313c-0.814,0-1.274,0.525-1.274,1.208c0,2.023,4.086,1.524,4.086,4.52
			c0,1.498-1.064,2.562-2.76,2.562c-1.366,0-2.417-0.723-2.877-1.748L29.73,93.274z"/>
		<path fill="#FFFFFF" d="M42.527,95.573l-0.473-1.879h-2.602l-0.46,1.879h-1.274l2.392-9.196h1.3l2.392,9.196H42.527z
			 M40.964,89.136c-0.092-0.354-0.184-0.906-0.184-0.906h-0.026c0,0-0.105,0.552-0.197,0.906l-0.854,3.469h2.115L40.964,89.136z"/>
		<path fill="#FFFFFF" d="M47.282,94.39c0.185,0.105,0.407,0.158,0.671,0.158c0.984,0,1.379-0.71,1.379-1.971v-6.201h1.209v6.135
			c0,2.168-0.973,3.193-2.575,3.193c-0.421,0-0.814-0.066-1.143-0.211L47.282,94.39z"/>
		<path fill="#FFFFFF" d="M54.705,90.974c0-2.601,0.802-4.729,3.048-4.729c2.26,0,3.062,2.129,3.062,4.729
			c0,2.602-0.802,4.73-3.062,4.73C55.507,95.705,54.705,93.576,54.705,90.974z M59.605,90.974c0-2.154-0.539-3.573-1.853-3.573
			c-1.301,0-1.839,1.419-1.839,3.573c0,2.155,0.552,3.574,1.839,3.574C59.054,94.549,59.605,93.13,59.605,90.974z"/>
		<path fill="#FFFFFF" d="M69.222,86.377h1.223v6.135c0,2.168-1.091,3.193-2.693,3.193c-1.604,0-2.72-1.025-2.72-3.206v-6.122h1.209
			v6.017c0,1.209,0.341,2.155,1.497,2.155c1.183,0,1.484-0.946,1.484-2.168V86.377z"/>
		<path fill="#FFFFFF" d="M75.487,93.274c0.303,0.774,0.999,1.274,1.826,1.274c0.999,0,1.551-0.592,1.551-1.38
			c0-1.971-4.099-1.616-4.099-4.506c0-1.354,0.985-2.418,2.509-2.418c1.393,0,2.221,0.763,2.654,1.853l-1.091,0.631
			c-0.236-0.735-0.709-1.313-1.576-1.313c-0.814,0-1.274,0.525-1.274,1.208c0,2.023,4.086,1.524,4.086,4.52
			c0,1.498-1.064,2.562-2.76,2.562c-1.366,0-2.417-0.723-2.877-1.748L75.487,93.274z"/>
	</g>
</g>
</svg>
